<svg height="4030" width="720" xmlns="http://www.w3.org/2000/svg">
<rect height="4030" fill="#555" width="720"></rect>
<text fill="#7f7" font-family="Courier New" font-size="12" xml:space="preserve">
<tspan x="10" y="26">33 megabytes installed</tspan>
<tspan x="10" y="42"></tspan>
<tspan x="10" y="58">node_modules</tspan>
<tspan x="10" y="74">└─┬ learn-sass@1.3.1 </tspan>
<tspan x="10" y="90">  ├── after@0.8.2 </tspan>
<tspan x="10" y="106">  ├─┬ node-sass@4.5.2 </tspan>
<tspan x="10" y="122">  │ ├── async-foreach@0.1.3 </tspan>
<tspan x="10" y="138">  │ ├─┬ chalk@1.1.3 </tspan>
<tspan x="10" y="154">  │ │ ├── ansi-styles@2.2.1 </tspan>
<tspan x="10" y="170">  │ │ ├── escape-string-regexp@1.0.5 </tspan>
<tspan x="10" y="186">  │ │ ├── has-ansi@2.0.0 </tspan>
<tspan x="10" y="202">  │ │ ├── strip-ansi@3.0.1 </tspan>
<tspan x="10" y="218">  │ │ └── supports-color@2.0.0 </tspan>
<tspan x="10" y="234">  │ ├─┬ cross-spawn@3.0.1 </tspan>
<tspan x="10" y="250">  │ │ ├─┬ lru-cache@4.0.2 </tspan>
<tspan x="10" y="266">  │ │ │ ├── pseudomap@1.0.2 </tspan>
<tspan x="10" y="282">  │ │ │ └── yallist@2.1.2 </tspan>
<tspan x="10" y="298">  │ │ └─┬ which@1.2.14 </tspan>
<tspan x="10" y="314">  │ │   └── isexe@2.0.0 </tspan>
<tspan x="10" y="330">  │ ├─┬ gaze@1.1.2 </tspan>
<tspan x="10" y="346">  │ │ └── globule@1.1.0 </tspan>
<tspan x="10" y="362">  │ ├── get-stdin@4.0.1 </tspan>
<tspan x="10" y="378">  │ ├─┬ glob@7.1.1 </tspan>
<tspan x="10" y="394">  │ │ ├── fs.realpath@1.0.0 </tspan>
<tspan x="10" y="410">  │ │ ├─┬ inflight@1.0.6 </tspan>
<tspan x="10" y="426">  │ │ │ └── wrappy@1.0.2 </tspan>
<tspan x="10" y="442">  │ │ ├── inherits@2.0.3 </tspan>
<tspan x="10" y="458">  │ │ ├─┬ minimatch@3.0.3 </tspan>
<tspan x="10" y="474">  │ │ │ └─┬ brace-expansion@1.1.7 </tspan>
<tspan x="10" y="490">  │ │ │   ├── balanced-match@0.4.2 </tspan>
<tspan x="10" y="506">  │ │ │   └── concat-map@0.0.1 </tspan>
<tspan x="10" y="522">  │ │ ├── once@1.4.0 </tspan>
<tspan x="10" y="538">  │ │ └── path-is-absolute@1.0.1 </tspan>
<tspan x="10" y="554">  │ ├── in-publish@2.0.0 </tspan>
<tspan x="10" y="570">  │ ├── lodash.assign@4.2.0 </tspan>
<tspan x="10" y="586">  │ ├── lodash.clonedeep@4.5.0 </tspan>
<tspan x="10" y="602">  │ ├── lodash.mergewith@4.6.0 </tspan>
<tspan x="10" y="618">  │ ├─┬ meow@3.7.0 </tspan>
<tspan x="10" y="634">  │ │ ├─┬ camelcase-keys@2.1.0 </tspan>
<tspan x="10" y="650">  │ │ │ └── camelcase@2.1.1 </tspan>
<tspan x="10" y="666">  │ │ ├── decamelize@1.2.0 </tspan>
<tspan x="10" y="682">  │ │ ├─┬ loud-rejection@1.6.0 </tspan>
<tspan x="10" y="698">  │ │ │ ├─┬ currently-unhandled@0.4.1 </tspan>
<tspan x="10" y="714">  │ │ │ │ └── array-find-index@1.0.2 </tspan>
<tspan x="10" y="730">  │ │ │ └── signal-exit@3.0.2 </tspan>
<tspan x="10" y="746">  │ │ ├── map-obj@1.0.1 </tspan>
<tspan x="10" y="762">  │ │ ├── minimist@1.2.0 </tspan>
<tspan x="10" y="778">  │ │ ├─┬ normalize-package-data@2.3.8 </tspan>
<tspan x="10" y="794">  │ │ │ ├── hosted-git-info@2.4.2 </tspan>
<tspan x="10" y="810">  │ │ │ ├─┬ is-builtin-module@1.0.0 </tspan>
<tspan x="10" y="826">  │ │ │ │ └── builtin-modules@1.1.1 </tspan>
<tspan x="10" y="842">  │ │ │ └─┬ validate-npm-package-license@3.0.1 </tspan>
<tspan x="10" y="858">  │ │ │   ├─┬ spdx-correct@1.0.2 </tspan>
<tspan x="10" y="874">  │ │ │   │ └── spdx-license-ids@1.2.2 </tspan>
<tspan x="10" y="890">  │ │ │   └── spdx-expression-parse@1.0.4 </tspan>
<tspan x="10" y="906">  │ │ ├── object-assign@4.1.1 </tspan>
<tspan x="10" y="922">  │ │ ├─┬ read-pkg-up@1.0.1 </tspan>
<tspan x="10" y="938">  │ │ │ ├─┬ find-up@1.1.2 </tspan>
<tspan x="10" y="954">  │ │ │ │ ├── path-exists@2.1.0 </tspan>
<tspan x="10" y="970">  │ │ │ │ └─┬ pinkie-promise@2.0.1 </tspan>
<tspan x="10" y="986">  │ │ │ │   └── pinkie@2.0.4 </tspan>
<tspan x="10" y="1002">  │ │ │ └─┬ read-pkg@1.1.0 </tspan>
<tspan x="10" y="1018">  │ │ │   ├─┬ load-json-file@1.1.0 </tspan>
<tspan x="10" y="1034">  │ │ │   │ ├── pify@2.3.0 </tspan>
<tspan x="10" y="1050">  │ │ │   │ └─┬ strip-bom@2.0.0 </tspan>
<tspan x="10" y="1066">  │ │ │   │   └── is-utf8@0.2.1 </tspan>
<tspan x="10" y="1082">  │ │ │   └── path-type@1.1.0 </tspan>
<tspan x="10" y="1098">  │ │ ├─┬ redent@1.0.0 </tspan>
<tspan x="10" y="1114">  │ │ │ ├─┬ indent-string@2.1.0 </tspan>
<tspan x="10" y="1130">  │ │ │ │ └─┬ repeating@2.0.1 </tspan>
<tspan x="10" y="1146">  │ │ │ │   └── is-finite@1.0.2 </tspan>
<tspan x="10" y="1162">  │ │ │ └── strip-indent@1.0.1 </tspan>
<tspan x="10" y="1178">  │ │ └── trim-newlines@1.0.0 </tspan>
<tspan x="10" y="1194">  │ ├─┬ mkdirp@0.5.1 </tspan>
<tspan x="10" y="1210">  │ │ └── minimist@0.0.8 </tspan>
<tspan x="10" y="1226">  │ ├── nan@2.6.2 </tspan>
<tspan x="10" y="1242">  │ ├─┬ node-gyp@3.6.0 </tspan>
<tspan x="10" y="1258">  │ │ ├── fstream@1.0.11 </tspan>
<tspan x="10" y="1274">  │ │ ├── graceful-fs@4.1.11 </tspan>
<tspan x="10" y="1290">  │ │ ├─┬ nopt@3.0.6 </tspan>
<tspan x="10" y="1306">  │ │ │ └── abbrev@1.1.0 </tspan>
<tspan x="10" y="1322">  │ │ ├─┬ osenv@0.1.4 </tspan>
<tspan x="10" y="1338">  │ │ │ ├── os-homedir@1.0.2 </tspan>
<tspan x="10" y="1354">  │ │ │ └── os-tmpdir@1.0.2 </tspan>
<tspan x="10" y="1370">  │ │ ├── rimraf@2.6.1 </tspan>
<tspan x="10" y="1386">  │ │ ├── semver@5.3.0 </tspan>
<tspan x="10" y="1402">  │ │ └─┬ tar@2.2.1 </tspan>
<tspan x="10" y="1418">  │ │   └── block-stream@0.0.9 </tspan>
<tspan x="10" y="1434">  │ ├─┬ npmlog@4.0.2 </tspan>
<tspan x="10" y="1450">  │ │ ├─┬ are-we-there-yet@1.1.4 </tspan>
<tspan x="10" y="1466">  │ │ │ └── delegates@1.0.0 </tspan>
<tspan x="10" y="1482">  │ │ ├── console-control-strings@1.1.0 </tspan>
<tspan x="10" y="1498">  │ │ ├─┬ gauge@2.7.3 </tspan>
<tspan x="10" y="1514">  │ │ │ ├── aproba@1.1.1 </tspan>
<tspan x="10" y="1530">  │ │ │ ├── has-unicode@2.0.1 </tspan>
<tspan x="10" y="1546">  │ │ │ ├─┬ string-width@1.0.2 </tspan>
<tspan x="10" y="1562">  │ │ │ │ ├── code-point-at@1.1.0 </tspan>
<tspan x="10" y="1578">  │ │ │ │ └─┬ is-fullwidth-code-point@1.0.0 </tspan>
<tspan x="10" y="1594">  │ │ │ │   └── number-is-nan@1.0.1 </tspan>
<tspan x="10" y="1610">  │ │ │ └── wide-align@1.1.0 </tspan>
<tspan x="10" y="1626">  │ │ └── set-blocking@2.0.0 </tspan>
<tspan x="10" y="1642">  │ ├─┬ request@2.81.0 </tspan>
<tspan x="10" y="1658">  │ │ ├── aws-sign2@0.6.0 </tspan>
<tspan x="10" y="1674">  │ │ ├── aws4@1.6.0 </tspan>
<tspan x="10" y="1690">  │ │ ├── caseless@0.12.0 </tspan>
<tspan x="10" y="1706">  │ │ ├── combined-stream@1.0.5 </tspan>
<tspan x="10" y="1722">  │ │ ├── extend@3.0.0 </tspan>
<tspan x="10" y="1738">  │ │ ├── forever-agent@0.6.1 </tspan>
<tspan x="10" y="1754">  │ │ ├─┬ form-data@2.1.4 </tspan>
<tspan x="10" y="1770">  │ │ │ └── asynckit@0.4.0 </tspan>
<tspan x="10" y="1786">  │ │ ├─┬ har-validator@4.2.1 </tspan>
<tspan x="10" y="1802">  │ │ │ ├─┬ ajv@4.11.7 </tspan>
<tspan x="10" y="1818">  │ │ │ │ ├── co@4.6.0 </tspan>
<tspan x="10" y="1834">  │ │ │ │ └─┬ json-stable-stringify@1.0.1 </tspan>
<tspan x="10" y="1850">  │ │ │ │   └── jsonify@0.0.0 </tspan>
<tspan x="10" y="1866">  │ │ │ └── har-schema@1.0.5 </tspan>
<tspan x="10" y="1882">  │ │ ├─┬ hawk@3.1.3 </tspan>
<tspan x="10" y="1898">  │ │ │ ├── boom@2.10.1 </tspan>
<tspan x="10" y="1914">  │ │ │ ├── cryptiles@2.0.5 </tspan>
<tspan x="10" y="1930">  │ │ │ ├── hoek@2.16.3 </tspan>
<tspan x="10" y="1946">  │ │ │ └── sntp@1.0.9 </tspan>
<tspan x="10" y="1962">  │ │ ├─┬ http-signature@1.1.1 </tspan>
<tspan x="10" y="1978">  │ │ │ ├── assert-plus@0.2.0 </tspan>
<tspan x="10" y="1994">  │ │ │ ├─┬ jsprim@1.4.0 </tspan>
<tspan x="10" y="2010">  │ │ │ │ ├── assert-plus@1.0.0 </tspan>
<tspan x="10" y="2026">  │ │ │ │ ├── extsprintf@1.0.2 </tspan>
<tspan x="10" y="2042">  │ │ │ │ ├── json-schema@0.2.3 </tspan>
<tspan x="10" y="2058">  │ │ │ │ └── verror@1.3.6 </tspan>
<tspan x="10" y="2074">  │ │ │ └─┬ sshpk@1.13.0 </tspan>
<tspan x="10" y="2090">  │ │ │   ├── asn1@0.2.3 </tspan>
<tspan x="10" y="2106">  │ │ │   ├── assert-plus@1.0.0 </tspan>
<tspan x="10" y="2122">  │ │ │   ├── bcrypt-pbkdf@1.0.1 </tspan>
<tspan x="10" y="2138">  │ │ │   ├─┬ dashdash@1.14.1 </tspan>
<tspan x="10" y="2154">  │ │ │   │ └── assert-plus@1.0.0 </tspan>
<tspan x="10" y="2170">  │ │ │   ├── ecc-jsbn@0.1.1 </tspan>
<tspan x="10" y="2186">  │ │ │   ├─┬ getpass@0.1.6 </tspan>
<tspan x="10" y="2202">  │ │ │   │ └── assert-plus@1.0.0 </tspan>
<tspan x="10" y="2218">  │ │ │   ├── jodid25519@1.0.2 </tspan>
<tspan x="10" y="2234">  │ │ │   ├── jsbn@0.1.1 </tspan>
<tspan x="10" y="2250">  │ │ │   └── tweetnacl@0.14.5 </tspan>
<tspan x="10" y="2266">  │ │ ├── is-typedarray@1.0.0 </tspan>
<tspan x="10" y="2282">  │ │ ├── isstream@0.1.2 </tspan>
<tspan x="10" y="2298">  │ │ ├── json-stringify-safe@5.0.1 </tspan>
<tspan x="10" y="2314">  │ │ ├─┬ mime-types@2.1.15 </tspan>
<tspan x="10" y="2330">  │ │ │ └── mime-db@1.27.0 </tspan>
<tspan x="10" y="2346">  │ │ ├── oauth-sign@0.8.2 </tspan>
<tspan x="10" y="2362">  │ │ ├── performance-now@0.2.0 </tspan>
<tspan x="10" y="2378">  │ │ ├── qs@6.4.0 </tspan>
<tspan x="10" y="2394">  │ │ ├── safe-buffer@5.0.1 </tspan>
<tspan x="10" y="2410">  │ │ ├── stringstream@0.0.5 </tspan>
<tspan x="10" y="2426">  │ │ ├─┬ tough-cookie@2.3.2 </tspan>
<tspan x="10" y="2442">  │ │ │ └── punycode@1.4.1 </tspan>
<tspan x="10" y="2458">  │ │ ├── tunnel-agent@0.6.0 </tspan>
<tspan x="10" y="2474">  │ │ └── uuid@3.0.1 </tspan>
<tspan x="10" y="2490">  │ ├─┬ sass-graph@2.1.2 </tspan>
<tspan x="10" y="2506">  │ │ ├── lodash@4.16.6 </tspan>
<tspan x="10" y="2522">  │ │ └─┬ yargs@4.8.1 </tspan>
<tspan x="10" y="2538">  │ │   ├─┬ cliui@3.2.0 </tspan>
<tspan x="10" y="2554">  │ │   │ └── wrap-ansi@2.1.0 </tspan>
<tspan x="10" y="2570">  │ │   ├── get-caller-file@1.0.2 </tspan>
<tspan x="10" y="2586">  │ │   ├─┬ os-locale@1.4.0 </tspan>
<tspan x="10" y="2602">  │ │   │ └─┬ lcid@1.0.0 </tspan>
<tspan x="10" y="2618">  │ │   │   └── invert-kv@1.0.0 </tspan>
<tspan x="10" y="2634">  │ │   ├── require-directory@2.1.1 </tspan>
<tspan x="10" y="2650">  │ │   ├── require-main-filename@1.0.1 </tspan>
<tspan x="10" y="2666">  │ │   ├── which-module@1.0.0 </tspan>
<tspan x="10" y="2682">  │ │   ├── window-size@0.2.0 </tspan>
<tspan x="10" y="2698">  │ │   ├── y18n@3.2.1 </tspan>
<tspan x="10" y="2714">  │ │   └─┬ yargs-parser@2.4.1 </tspan>
<tspan x="10" y="2730">  │ │     └── camelcase@3.0.0 </tspan>
<tspan x="10" y="2746">  │ └─┬ stdout-stream@1.4.0 </tspan>
<tspan x="10" y="2762">  │   └─┬ readable-stream@2.2.9 </tspan>
<tspan x="10" y="2778">  │     ├── buffer-shims@1.0.0 </tspan>
<tspan x="10" y="2794">  │     ├── core-util-is@1.0.2 </tspan>
<tspan x="10" y="2810">  │     ├── isarray@1.0.0 </tspan>
<tspan x="10" y="2826">  │     ├── process-nextick-args@1.0.7 </tspan>
<tspan x="10" y="2842">  │     ├── string_decoder@1.0.0 </tspan>
<tspan x="10" y="2858">  │     └── util-deprecate@1.0.2 </tspan>
<tspan x="10" y="2874">  ├─┬ workshopper-adventure@5.1.8 </tspan>
<tspan x="10" y="2890">  │ ├─┬ colors-tmpl@1.0.0 </tspan>
<tspan x="10" y="2906">  │ │ └── colors@1.0.3 </tspan>
<tspan x="10" y="2922">  │ ├─┬ combined-stream-wait-for-it@1.1.0 </tspan>
<tspan x="10" y="2938">  │ │ └── delayed-stream@1.0.0 </tspan>
<tspan x="10" y="2954">  │ ├─┬ commandico@2.0.2 </tspan>
<tspan x="10" y="2970">  │ │ ├── explicit@0.1.1 </tspan>
<tspan x="10" y="2986">  │ │ └─┬ joi@6.10.1 </tspan>
<tspan x="10" y="3002">  │ │   ├── isemail@1.2.0 </tspan>
<tspan x="10" y="3018">  │ │   ├── moment@2.18.1 </tspan>
<tspan x="10" y="3034">  │ │   └── topo@1.1.0 </tspan>
<tspan x="10" y="3050">  │ ├─┬ i18n-core@2.1.1 </tspan>
<tspan x="10" y="3066">  │ │ ├── mustache@0.8.2 </tspan>
<tspan x="10" y="3082">  │ │ └── sprintf@0.1.5 </tspan>
<tspan x="10" y="3098">  │ ├─┬ latest-version@2.0.0 </tspan>
<tspan x="10" y="3114">  │ │ └─┬ package-json@2.4.0 </tspan>
<tspan x="10" y="3130">  │ │   ├─┬ got@5.7.1 </tspan>
<tspan x="10" y="3146">  │ │   │ ├─┬ create-error-class@3.0.2 </tspan>
<tspan x="10" y="3162">  │ │   │ │ └── capture-stack-trace@1.0.0 </tspan>
<tspan x="10" y="3178">  │ │   │ ├── duplexer2@0.1.4 </tspan>
<tspan x="10" y="3194">  │ │   │ ├── is-redirect@1.0.0 </tspan>
<tspan x="10" y="3210">  │ │   │ ├── is-retry-allowed@1.1.0 </tspan>
<tspan x="10" y="3226">  │ │   │ ├── is-stream@1.1.0 </tspan>
<tspan x="10" y="3242">  │ │   │ ├── lowercase-keys@1.0.0 </tspan>
<tspan x="10" y="3258">  │ │   │ ├── node-status-codes@1.0.0 </tspan>
<tspan x="10" y="3274">  │ │   │ ├─┬ parse-json@2.2.0 </tspan>
<tspan x="10" y="3290">  │ │   │ │ └─┬ error-ex@1.3.1 </tspan>
<tspan x="10" y="3306">  │ │   │ │   └── is-arrayish@0.2.1 </tspan>
<tspan x="10" y="3322">  │ │   │ ├── read-all-stream@3.1.0 </tspan>
<tspan x="10" y="3338">  │ │   │ ├── timed-out@3.1.3 </tspan>
<tspan x="10" y="3354">  │ │   │ ├── unzip-response@1.0.2 </tspan>
<tspan x="10" y="3370">  │ │   │ └─┬ url-parse-lax@1.0.0 </tspan>
<tspan x="10" y="3386">  │ │   │   └── prepend-http@1.0.4 </tspan>
<tspan x="10" y="3402">  │ │   ├─┬ registry-auth-token@3.2.0 </tspan>
<tspan x="10" y="3418">  │ │   │ └─┬ rc@1.2.1 </tspan>
<tspan x="10" y="3434">  │ │   │   ├── deep-extend@0.4.1 </tspan>
<tspan x="10" y="3450">  │ │   │   ├── ini@1.3.4 </tspan>
<tspan x="10" y="3466">  │ │   │   └── strip-json-comments@2.0.1 </tspan>
<tspan x="10" y="3482">  │ │   └── registry-url@3.1.0 </tspan>
<tspan x="10" y="3498">  │ ├─┬ msee@0.3.3 </tspan>
<tspan x="10" y="3514">  │ │ ├── ansi-regex@2.1.1 </tspan>
<tspan x="10" y="3530">  │ │ ├── ansicolors@0.3.2 </tspan>
<tspan x="10" y="3546">  │ │ ├─┬ cardinal@0.7.1 </tspan>
<tspan x="10" y="3562">  │ │ │ ├── ansicolors@0.2.1 </tspan>
<tspan x="10" y="3578">  │ │ │ └─┬ redeyed@0.6.0 </tspan>
<tspan x="10" y="3594">  │ │ │   └── esprima@2.7.3 </tspan>
<tspan x="10" y="3610">  │ │ ├── entities@1.1.1 </tspan>
<tspan x="10" y="3626">  │ │ ├── marked@0.3.6 </tspan>
<tspan x="10" y="3642">  │ │ ├─┬ table-header@0.2.2 </tspan>
<tspan x="10" y="3658">  │ │ │ └── repeat-string@1.6.1 </tspan>
<tspan x="10" y="3674">  │ │ └── text-table@0.2.0 </tspan>
<tspan x="10" y="3690">  │ ├─┬ simple-terminal-menu@1.1.3 </tspan>
<tspan x="10" y="3706">  │ │ └─┬ extended-terminal-menu@2.1.4 </tspan>
<tspan x="10" y="3722">  │ │   ├── charm_inheritance-fix@1.0.1 </tspan>
<tspan x="10" y="3738">  │ │   ├─┬ duplexer2@0.0.2 </tspan>
<tspan x="10" y="3754">  │ │   │ └─┬ readable-stream@1.1.14 </tspan>
<tspan x="10" y="3770">  │ │   │   ├── isarray@0.0.1 </tspan>
<tspan x="10" y="3786">  │ │   │   └── string_decoder@0.10.31 </tspan>
<tspan x="10" y="3802">  │ │   ├── resumer@0.0.0 </tspan>
<tspan x="10" y="3818">  │ │   └─┬ through2@0.6.5 </tspan>
<tspan x="10" y="3834">  │ │     └── readable-stream@1.0.34 </tspan>
<tspan x="10" y="3850">  │ ├─┬ split@1.0.0 </tspan>
<tspan x="10" y="3866">  │ │ └── through@2.3.8 </tspan>
<tspan x="10" y="3882">  │ ├── string-to-stream@1.1.0 </tspan>
<tspan x="10" y="3898">  │ ├── through2@2.0.3 </tspan>
<tspan x="10" y="3914">  │ └── workshopper-adventure-storage@3.0.0 </tspan>
<tspan x="10" y="3930">  ├─┬ workshopper-exercise@2.7.0 </tspan>
<tspan x="10" y="3946">  │ ├── tuple-stream@0.0.2 </tspan>
<tspan x="10" y="3962">  │ └─┬ wcstring@2.1.1 </tspan>
<tspan x="10" y="3978">  │   ├── varsize-string@2.2.2 </tspan>
<tspan x="10" y="3994">  │   └── wcsize@1.0.0 </tspan>
<tspan x="10" y="4010">  └── xtend@4.0.1</tspan>
</text>
</svg>
